<svg width="36" height="36" viewBox="0 0 36 36" fill="none" xmlns="http://www.w3.org/2000/svg">
    <path fill-rule="evenodd" clip-rule="evenodd" d="M18 36C27.9411 36 36 27.9411 36 18C36 8.05887 27.9411 0 18 0C8.05887 0 0 8.05887 0 18C0 27.9411 8.05887 36 18 36Z" fill="white"/>
    <path d="M18 36C27.9411 36 36 27.9411 36 18C36 8.05887 27.9411 0 18 0C8.05887 0 0 8.05887 0 18C0 27.9411 8.05887 36 18 36Z" fill="#B9AA97"/>
    <path fill-rule="evenodd" clip-rule="evenodd" d="M25.2617 11.8198C25.3381 12.2477 25.3797 12.6871 25.3797 13.1365C25.3797 13.4054 25.3605 13.6723 25.3315 13.9377L26.7699 13.2646V23.923L21.6361 26.5506L15.2268 23.5511L14.4014 23.1647L13.5758 23.5511L9.11447 25.639V14.9805L10.5796 14.2947C10.5346 13.9626 10.5043 13.6278 10.5043 13.2897C10.5043 12.8982 10.5347 12.5136 10.5925 12.1381L7.16663 13.7414V28.7013L14.4014 25.3153L21.6361 28.7013L28.7178 25.1622V10.2025L25.2617 11.8198ZM18.0189 7.16669C14.6425 7.16669 11.8958 9.91376 11.8958 13.2896C11.8958 14.7401 12.416 16.1495 13.3613 17.2578L13.3848 17.2866C13.5379 17.4875 13.9671 18.0432 14.1075 18.2035C15.094 19.3279 17.082 21.5615 18.0225 22.6177C18.9923 21.5436 21.0686 19.2408 22.0588 18.1109C22.1674 17.9875 22.4578 17.5739 22.6297 17.3196L22.6768 17.2576C23.6215 16.1499 24.1421 14.7407 24.1421 13.2897C24.1419 9.91348 21.395 7.16669 18.0189 7.16669ZM18.0189 15.7805C16.4823 15.7805 15.2363 14.5347 15.2363 12.9978C15.2363 11.4609 16.4822 10.2152 18.0189 10.2152C19.5556 10.2152 20.8018 11.4611 20.8018 12.9978C20.8018 14.5346 19.5556 15.7805 18.0189 15.7805Z" fill="white"/>
</svg>
